<svg width="21" height="13" viewBox="0 0 21 13" fill="none" xmlns="http://www.w3.org/2000/svg">
<path fill-rule="evenodd" clip-rule="evenodd" d="M13.5553 12.7274C13.4689 12.6411 13.4003 12.5387 13.3535 12.4259C13.3067 12.3131 13.2826 12.1922 13.2826 12.0701C13.2826 11.948 13.3067 11.8271 13.3535 11.7143C13.4003 11.6015 13.4689 11.499 13.5553 11.4128L18.4701 6.49988L13.5553 1.58695C13.381 1.41263 13.2831 1.17619 13.2831 0.929664C13.2831 0.683134 13.381 0.446701 13.5553 0.272378C13.7297 0.0980549 13.9661 0.00012204 14.2126 0.00012203C14.4592 0.000122019 14.6956 0.0980548 14.8699 0.272378L20.4401 5.84259C20.5266 5.92883 20.5952 6.03128 20.642 6.14407C20.6888 6.25685 20.7129 6.37777 20.7129 6.49988C20.7129 6.62199 20.6888 6.7429 20.642 6.85569C20.5952 6.96848 20.5266 7.07093 20.4401 7.15716L14.8699 12.7274C14.7837 12.8138 14.6812 12.8824 14.5684 12.9292C14.4556 12.976 14.3347 13.0001 14.2126 13.0001C14.0905 13.0001 13.9696 12.976 13.8568 12.9292C13.744 12.8824 13.6416 12.8138 13.5553 12.7274Z" fill="white"/>
<path fill-rule="evenodd" clip-rule="evenodd" d="M0.287109 6.49998C0.287109 6.25376 0.38492 6.01762 0.559023 5.84352C0.733126 5.66942 0.96926 5.57161 1.21548 5.57161L17.9261 5.57161C18.1723 5.57161 18.4085 5.66941 18.5826 5.84352C18.7567 6.01762 18.8545 6.25376 18.8545 6.49997C18.8545 6.74619 18.7567 6.98233 18.5826 7.15643C18.4085 7.33053 18.1723 7.42834 17.9261 7.42834L1.21548 7.42834C0.96926 7.42834 0.733126 7.33053 0.559023 7.15643C0.38492 6.98233 0.287109 6.74619 0.287109 6.49998Z" fill="white"/>
</svg>
