<svg width="11" height="8" viewBox="0 0 11 8" fill="none" xmlns="http://www.w3.org/2000/svg">
<path fill-rule="evenodd" clip-rule="evenodd" d="M9.521 4.00006C9.521 4.11857 9.47392 4.23221 9.39013 4.31601C9.30634 4.3998 9.19269 4.44687 9.07419 4.44687L1.0316 4.44688C0.913095 4.44688 0.799446 4.3998 0.715653 4.31601C0.63186 4.23221 0.584786 4.11857 0.584786 4.00006C0.584786 3.88156 0.63186 3.76792 0.715652 3.68412C0.799446 3.60033 0.913095 3.55325 1.0316 3.55325L9.07419 3.55325C9.19269 3.55325 9.30634 3.60033 9.39013 3.68412C9.47392 3.76791 9.521 3.88156 9.521 4.00006Z" fill="#07484A"/>
<path fill-rule="evenodd" clip-rule="evenodd" d="M10.284 3.68381C10.3256 3.72532 10.3586 3.77462 10.3812 3.82891C10.4037 3.88319 10.4153 3.94138 10.4153 4.00016C10.4153 4.05893 10.4037 4.11712 10.3812 4.1714C10.3586 4.22569 10.3256 4.27499 10.284 4.3165L7.60315 6.99736C7.51925 7.08126 7.40546 7.12839 7.28681 7.12839C7.16816 7.12839 7.05437 7.08126 6.97047 6.99736C6.88657 6.91346 6.83944 6.79967 6.83944 6.68102C6.83944 6.56237 6.88657 6.44858 6.97047 6.36468L9.33588 4.00016L6.97047 1.63564C6.88657 1.55174 6.83944 1.43794 6.83944 1.31929C6.83944 1.20064 6.88657 1.08685 6.97047 1.00295C7.05437 0.919052 7.16816 0.871918 7.28681 0.871918C7.40546 0.871918 7.51925 0.919052 7.60315 1.00295L10.284 3.68381Z" fill="#07484A"/>
</svg>
