<svg width="249" height="40" viewBox="0 0 249 40" fill="none" xmlns="http://www.w3.org/2000/svg">
<path d="M37.8602 13.7769L26.1313 11.9919L20.8882 0.861075C20.745 0.556319 20.5094 0.309611 20.2184 0.159652C19.4885 -0.217665 18.6016 0.0967659 18.2367 0.861075L12.9936 11.9919L1.26474 13.7769C0.941376 13.8253 0.645729 13.9849 0.419375 14.2268C0.145726 14.5213 -0.00506713 14.9176 0.000130019 15.3285C0.00532717 15.7394 0.16609 16.1313 0.447092 16.4181L8.93305 25.0819L6.92821 37.3157C6.88119 37.6003 6.91126 37.893 7.01501 38.1606C7.11877 38.4282 7.29204 38.66 7.51519 38.8297C7.73835 38.9994 8.00245 39.1003 8.27755 39.1208C8.55265 39.1413 8.82775 39.0807 9.07164 38.9459L19.5625 33.1701L30.0533 38.9459C30.3397 39.1055 30.6723 39.1587 30.991 39.1007C31.7948 38.9556 32.3353 38.1574 32.1967 37.3157L30.1918 25.0819L38.6778 16.4181C38.9088 16.1811 39.0612 15.8715 39.1074 15.5329C39.2321 14.6864 38.6686 13.9027 37.8602 13.7769Z" fill="#FFC107"/>
<path d="M91.2121 13.777L79.4833 11.992L74.2402 0.861136C74.097 0.55638 73.8614 0.309672 73.5703 0.159713C72.8405 -0.217604 71.9535 0.0968269 71.5886 0.861136L66.3455 11.992L54.6167 13.777C54.2933 13.8254 53.9977 13.985 53.7713 14.2269C53.4977 14.5214 53.3469 14.9176 53.3521 15.3285C53.3573 15.7394 53.518 16.1314 53.799 16.4182L62.285 25.082L60.2801 37.3158C60.2331 37.6003 60.2632 37.893 60.3669 38.1606C60.4707 38.4282 60.644 38.66 60.8671 38.8297C61.0903 38.9995 61.3544 39.1003 61.6295 39.1209C61.9046 39.1414 62.1797 39.0808 62.4236 38.946L72.9144 33.1701L83.4052 38.946C83.6916 39.1056 84.0242 39.1588 84.3429 39.1008C85.1467 38.9556 85.6872 38.1575 85.5486 37.3158L83.5438 25.082L92.0297 16.4182C92.2607 16.1812 92.4132 15.8716 92.4593 15.533C92.5841 14.6864 92.0205 13.9028 91.2121 13.777Z" fill="#FFC107"/>
<path d="M141.007 13.777L129.278 11.992L124.035 0.861136C123.892 0.55638 123.656 0.309672 123.365 0.159713C122.636 -0.217604 121.749 0.0968269 121.384 0.861136L116.141 11.992L104.412 13.777C104.088 13.8254 103.793 13.985 103.566 14.2269C103.293 14.5214 103.142 14.9176 103.147 15.3285C103.152 15.7394 103.313 16.1314 103.594 16.4182L112.08 25.082L110.075 37.3158C110.028 37.6003 110.058 37.893 110.162 38.1606C110.266 38.4282 110.439 38.66 110.662 38.8297C110.885 38.9995 111.149 39.1003 111.425 39.1209C111.7 39.1414 111.975 39.0808 112.219 38.946L122.709 33.1701L133.2 38.946C133.487 39.1056 133.819 39.1588 134.138 39.1008C134.942 38.9556 135.482 38.1575 135.344 37.3158L133.339 25.082L141.825 16.4182C142.056 16.1812 142.208 15.8716 142.254 15.533C142.379 14.6864 141.816 13.9028 141.007 13.777Z" fill="#FFC107"/>
<path d="M194.359 13.777L182.63 11.992L177.387 0.861136C177.244 0.55638 177.008 0.309672 176.717 0.159713C175.987 -0.217604 175.101 0.0968269 174.736 0.861136L169.492 11.992L157.764 13.777C157.44 13.8254 157.145 13.985 156.918 14.2269C156.645 14.5214 156.494 14.9176 156.499 15.3285C156.504 15.7394 156.665 16.1314 156.946 16.4182L165.432 25.082L163.427 37.3158C163.38 37.6003 163.41 37.893 163.514 38.1606C163.618 38.4282 163.791 38.66 164.014 38.8297C164.237 38.9995 164.501 39.1003 164.776 39.1209C165.052 39.1414 165.327 39.0808 165.571 38.946L176.061 33.1701L186.552 38.946C186.839 39.1056 187.171 39.1588 187.49 39.1008C188.294 38.9556 188.834 38.1575 188.696 37.3158L186.691 25.082L195.177 16.4182C195.408 16.1812 195.56 15.8716 195.606 15.533C195.731 14.6864 195.167 13.9028 194.359 13.777Z" fill="#FFC107"/>
<path d="M247.711 13.777L235.982 11.992L230.739 0.861136C230.596 0.55638 230.36 0.309672 230.069 0.159713C229.339 -0.217604 228.452 0.0968269 228.087 0.861136L222.844 11.992L211.116 13.777C210.792 13.8254 210.497 13.985 210.27 14.2269C209.997 14.5214 209.846 14.9176 209.851 15.3285C209.856 15.7394 210.017 16.1314 210.298 16.4182L218.784 25.082L216.779 37.3158C216.732 37.6003 216.762 37.893 216.866 38.1606C216.97 38.4282 217.143 38.66 217.366 38.8297C217.589 38.9995 217.853 39.1003 218.128 39.1209C218.403 39.1414 218.679 39.0808 218.922 38.946L229.413 33.1701L239.904 38.946C240.191 39.1056 240.523 39.1588 240.842 39.1008C241.646 38.9556 242.186 38.1575 242.048 37.3158L240.043 25.082L248.529 16.4182C248.76 16.1812 248.912 15.8716 248.958 15.533C249.083 14.6864 248.519 13.9028 247.711 13.777Z" fill="#FFC107"/>
</svg>
