<svg width="20" height="13" viewBox="0 0 20 13" fill="none" xmlns="http://www.w3.org/2000/svg">
<path fill-rule="evenodd" clip-rule="evenodd" d="M17.52 6.49978C17.52 6.73211 17.4277 6.95492 17.2634 7.1192C17.0992 7.28348 16.8764 7.37578 16.644 7.37578L0.87605 7.37578C0.643721 7.37578 0.420907 7.28348 0.256625 7.1192C0.0923437 6.95492 5.19885e-05 6.73211 5.19857e-05 6.49978C5.19829e-05 6.26745 0.0923437 6.04464 0.256625 5.88035C0.420907 5.71607 0.643721 5.62378 0.87605 5.62378L16.644 5.62378C16.8764 5.62378 17.0992 5.71607 17.2634 5.88035C17.4277 6.04464 17.52 6.26745 17.52 6.49978V6.49978Z" fill="#07484A"/>
<path fill-rule="evenodd" clip-rule="evenodd" d="M19.0163 5.87983C19.0979 5.9612 19.1626 6.05787 19.2068 6.1643C19.2509 6.27072 19.2737 6.38482 19.2737 6.50004C19.2737 6.61526 19.2509 6.72935 19.2068 6.83578C19.1626 6.94221 19.0979 7.03887 19.0163 7.12025L13.7603 12.3762C13.5958 12.5407 13.3727 12.6331 13.1401 12.6331C12.9075 12.6331 12.6844 12.5407 12.5199 12.3762C12.3554 12.2117 12.263 11.9887 12.263 11.756C12.263 11.5234 12.3554 11.3003 12.5199 11.1358L17.1575 6.50004L12.5199 1.86426C12.3554 1.69977 12.263 1.47667 12.263 1.24405C12.263 1.01143 12.3554 0.788331 12.5199 0.623842C12.6844 0.459353 12.9075 0.366943 13.1401 0.366943C13.3727 0.366943 13.5958 0.459353 13.7603 0.623842L19.0163 5.87983Z" fill="#07484A"/>
</svg>
